<svg xmlns="http://www.w3.org/2000/svg" width="100" height="101.64" viewBox="0 0 100 101.64">
  <g id="noun_Deploy_2715693" transform="translate(-3 -2)">
    <g id="그룹_257" data-name="그룹 257" transform="translate(3 2)">
      <g id="그룹_256" data-name="그룹 256">
        <g id="그룹_254" data-name="그룹 254" transform="translate(0 63.988)">
          <path id="패스_48" data-name="패스 48" d="M6.043,118.511a1.746,1.746,0,0,1-1.261-2.96L28.807,90.795a1.762,1.762,0,0,1,2.481-.043,1.741,1.741,0,0,1,.043,2.47L7.305,117.979A1.755,1.755,0,0,1,6.043,118.511Z" transform="translate(-3.232 -81.904)" fill="#23374d"/>
          <path id="패스_49" data-name="패스 49" d="M26.668,121.395a1.747,1.747,0,0,1-1.311-2.907l15.571-17.442a1.761,1.761,0,0,1,2.477-.145,1.741,1.741,0,0,1,.147,2.466L27.981,120.809A1.758,1.758,0,0,1,26.668,121.395Z" transform="translate(-6.952 -83.743)" fill="#23374d"/>
          <path id="패스_50" data-name="패스 50" d="M4.753,101a1.747,1.747,0,0,1-1.311-2.907L19.015,80.651a1.761,1.761,0,0,1,2.477-.145,1.741,1.741,0,0,1,.147,2.466L6.066,100.414A1.758,1.758,0,0,1,4.753,101Z" transform="translate(-3 -80.065)" fill="#23374d"/>
        </g>
        <g id="그룹_255" data-name="그룹 255" transform="translate(14.932)">
          <path id="패스_51" data-name="패스 51" d="M74.407,80.943q-4.453,2.062-8.986,3.858l1.113,14.4c4.528-2.054,15.034-8.429,23.364-25.737-3.6,1.909-7.193,3.626-10.264,5.092C77.912,79.38,76.165,80.171,74.407,80.943Z" transform="translate(-29.188 -14.886)" fill="#23374d"/>
          <path id="패스_52" data-name="패스 52" d="M85.08,32.591a6.3,6.3,0,0,0-4.442,1.816,6.138,6.138,0,0,0,0,8.753,6.338,6.338,0,0,0,8.883,0h0a6.137,6.137,0,0,0,0-8.753A6.3,6.3,0,0,0,85.08,32.591Z" transform="translate(-31.601 -7.516)" fill="#23374d"/>
          <path id="패스_53" data-name="패스 53" d="M44.118,37.688c.975-1.956,2.017-4,3.133-6.055C29.765,39.858,23.3,50.23,21.217,54.718L35.666,55.81q2.267-5.6,4.952-11.094C41.706,42.489,42.869,40.11,44.118,37.688Z" transform="translate(-21.217 -7.344)" fill="#23374d"/>
          <path id="패스_54" data-name="패스 54" d="M94.322,4.226l22.91,22.654a74.2,74.2,0,0,0,2.02-13.024c.024-.348.048-.7.068-1.048q.045-.789.075-1.561.034-.888.052-1.786c.008-.411.015-.819.017-1.221,0-.823,0-1.65-.012-2.484,0-.189-.008-.373-.013-.559-.025-1-.061-2.008-.117-3.023A83.859,83.859,0,0,0,94.322,4.226Z" transform="translate(-34.399 -2)" fill="#23374d"/>
          <path id="패스_55" data-name="패스 55" d="M96.668,47.79c.462-.509.915-1.03,1.352-1.566.057-.07.12-.139.176-.211.461-.575.9-1.171,1.337-1.776q.225-.315.443-.634.5-.733.98-1.5c.2-.328.4-.659.6-.991q.348-.59.68-1.2c.193-.355.386-.71.57-1.069.137-.267.266-.542.4-.813.352-.722.689-1.45,1-2.185.049-.116.1-.232.147-.348.56-1.339,1.057-2.7,1.5-4.062L80.194,6.064a45.087,45.087,0,0,0-16.533,9.217q-.172.155-.343.312c-.582.537-1.15,1.086-1.693,1.655-.193.2-.379.419-.568.629C56.77,22.616,53.181,28.8,50.117,34.747c-.683,1.371-1.332,2.7-1.934,3.932-2.389,4.871-4.562,9.916-6.462,14.994a1.734,1.734,0,0,1-.684.845Q39.021,59.69,37.386,64.9l9.039,8.939q5.411-1.65,10.79-3.717a1.721,1.721,0,0,1,.68-.483c3.384-1.237,6.751-2.6,10.069-4.062.671-.311,1.343-.621,2.011-.942,8.479-4.01,18.08-8.551,24.658-14.765.558-.525,1.1-1.076,1.622-1.638C96.4,48.088,96.531,47.939,96.668,47.79Zm-12.14-6.936a9.868,9.868,0,0,1-13.83,0,9.621,9.621,0,0,1,0-13.708,9.87,9.87,0,0,1,13.83,0,9.619,9.619,0,0,1,0,13.708Z" transform="translate(-24.133 -2.733)" fill="#23374d"/>
        </g>
      </g>
    </g>
  </g>
</svg>
