<svg xmlns="http://www.w3.org/2000/svg" width="126.713" height="37.419" viewBox="0 0 126.713 37.419">
  <g id="logo" transform="translate(-4.061 15.37)">
    <rect id="사각형_68" data-name="사각형 68" width="15.349" height="12.264" transform="translate(4.061 -6.142)" fill="none"/>
    <rect id="사각형_69" data-name="사각형 69" width="63.247" height="37.419" transform="translate(21.08 -15.37)" fill="none"/>
    <g id="그룹_237" data-name="그룹 237" transform="translate(7.563 -5.955)">
      <path id="패스_1" data-name="패스 1" d="M13.351,13.961a.428.428,0,0,1-.076.643c-.107.072-.224.145-.35.224a7.322,7.322,0,0,1-1.183.574,9.954,9.954,0,0,1-1.628.472,10.05,10.05,0,0,1-2.058.19,8.639,8.639,0,0,1-3.191-.525,5.522,5.522,0,0,1-2.157-1.484A6,6,0,0,1,1.476,11.74a10.726,10.726,0,0,1-.4-3V7.1A9.225,9.225,0,0,1,1.5,4.238,5.754,5.754,0,0,1,2.754,2.062,5.528,5.528,0,0,1,4.853.689,8.138,8.138,0,0,1,7.76.21a11.015,11.015,0,0,1,3.1.407,10.039,10.039,0,0,1,1.91.761.428.428,0,0,1,.137.65l-.049.057a.43.43,0,0,1-.54.1,8.866,8.866,0,0,0-1.879-.772A10.146,10.146,0,0,0,7.756,1.1a6.545,6.545,0,0,0-2.377.407,4.655,4.655,0,0,0-1.75,1.153A5.017,5.017,0,0,0,2.556,4.478a7.273,7.273,0,0,0-.365,2.37V8.982a6.443,6.443,0,0,0,1.5,4.622,5.829,5.829,0,0,0,4.412,1.571,8.472,8.472,0,0,0,1.639-.148,8.851,8.851,0,0,0,1.381-.384,7.389,7.389,0,0,0,1.111-.514c.186-.107.358-.213.51-.312a.424.424,0,0,1,.544.072Z" transform="translate(-1.08 -0.206)" fill="#1089ff"/>
      <path id="패스_2" data-name="패스 2" d="M49.72,1.246V15.784a.425.425,0,0,1-.426.426h-.232a.425.425,0,0,1-.426-.426V8.995a.425.425,0,0,0-.426-.426H39.13a.425.425,0,0,0-.426.426v6.79a.425.425,0,0,1-.426.426h-.232a.425.425,0,0,1-.426-.426V1.246A.425.425,0,0,1,38.046.82h.232a.425.425,0,0,1,.426.426V7.268a.425.425,0,0,0,.426.426h9.076a.425.425,0,0,0,.426-.426V1.246A.425.425,0,0,1,49.058.82h.232A.426.426,0,0,1,49.72,1.246Z" transform="translate(-23.721 -0.584)" fill="#1089ff"/>
      <path id="패스_3" data-name="패스 3" d="M86,15.613,79.6,1.075A.425.425,0,0,0,79.206.82h-.529a.429.429,0,0,0-.392.255L71.819,15.609a.427.427,0,0,0,.392.6h.247a.425.425,0,0,0,.392-.255L74.573,12l.221-.506.746-1.689.042-.1.384-.871,1.5-3.4c.278-.628.548-1.232.8-1.826.1-.236.2-.475.293-.715a.424.424,0,0,1,.787-.015c.1.243.2.487.312.73q.394.884.787,1.826l1.868,4.378c.08.19.669,1.537.734,1.685l1.9,4.454a.428.428,0,0,0,.392.259h.27A.424.424,0,0,0,86,15.613Z" transform="translate(-44.888 -0.584)" fill="#1089ff"/>
      <path id="패스_4" data-name="패스 4" d="M112.861.82a.427.427,0,0,1,.354.186l8.718,12.857c.1.141.224.35.38.62s.281.5.38.685V1.246A.425.425,0,0,1,123.12.82h.205a.425.425,0,0,1,.426.426V15.784a.425.425,0,0,1-.426.426H122.5a.426.426,0,0,1-.354-.186L113.432,3.167c-.133-.2-.266-.418-.407-.662s-.259-.456-.358-.639V15.784a.425.425,0,0,1-.426.426h-.205a.425.425,0,0,1-.426-.426V1.246a.425.425,0,0,1,.426-.426Z" transform="translate(-69.566 -0.584)" fill="#1089ff"/>
      <path id="패스_5" data-name="패스 5" d="M153.775,9.951v5.828a.425.425,0,0,1-.426.426h-.232a.425.425,0,0,1-.426-.426V9.954a.434.434,0,0,0-.072-.24l-5.611-8.235a.426.426,0,0,1,.354-.666h.126a.427.427,0,0,1,.354.186L152.9,8.437a.428.428,0,0,0,.711-.008L158.454,1a.426.426,0,0,1,.358-.194h.156a.425.425,0,0,1,.354.662l-5.478,8.239A.485.485,0,0,0,153.775,9.951Z" transform="translate(-91.452 -0.578)" fill="#c7c7c7"/>
      <path id="패스_6" data-name="패스 6" d="M193.433,1.246v.023a.425.425,0,0,1-.426.426H184.57a.425.425,0,0,0-.426.426V7.458a.425.425,0,0,0,.426.426h7.92a.425.425,0,0,1,.426.426h0a.425.425,0,0,1-.426.426h-7.92a.425.425,0,0,0-.426.426v5.744a.425.425,0,0,0,.426.426h8.608a.425.425,0,0,1,.426.426v.023a.425.425,0,0,1-.426.426h-9.692a.425.425,0,0,1-.426-.426V1.246a.425.425,0,0,1,.426-.426h9.521A.425.425,0,0,1,193.433,1.246Z" transform="translate(-113.837 -0.584)" fill="#c7c7c7"/>
      <path id="패스_7" data-name="패스 7" d="M227.938,9.1a8.758,8.758,0,0,1-.43,2.8,6.166,6.166,0,0,1-1.282,2.21,5.726,5.726,0,0,1-2.13,1.442,8.916,8.916,0,0,1-5.964,0A5.7,5.7,0,0,1,216,14.107a6.134,6.134,0,0,1-1.282-2.21,8.654,8.654,0,0,1-.43-2.8V7.161a8.758,8.758,0,0,1,.43-2.8A6.111,6.111,0,0,1,216,2.155a5.727,5.727,0,0,1,2.13-1.442,8.916,8.916,0,0,1,5.964,0,5.7,5.7,0,0,1,2.13,1.442,6.134,6.134,0,0,1,1.282,2.21,8.775,8.775,0,0,1,.43,2.8ZM226.831,7.18A6.226,6.226,0,0,0,225.3,2.634a6.4,6.4,0,0,0-8.376,0A6.232,6.232,0,0,0,215.4,7.18v1.9a6.226,6.226,0,0,0,1.529,4.546,6.4,6.4,0,0,0,8.376,0,6.226,6.226,0,0,0,1.529-4.546Z" transform="translate(-133.188 -0.2)" fill="#c7c7c7"/>
      <path id="패스_8" data-name="패스 8" d="M256.161.82a.426.426,0,0,1,.354.186l8.718,12.857c.1.141.224.35.38.62s.281.5.38.685V1.246a.425.425,0,0,1,.426-.426h.205a.425.425,0,0,1,.426.426V15.784a.425.425,0,0,1-.426.426H265.8a.426.426,0,0,1-.354-.186L256.732,3.167c-.133-.2-.266-.418-.407-.662s-.259-.456-.358-.639V15.784a.425.425,0,0,1-.426.426h-.205a.425.425,0,0,1-.426-.426V1.246a.425.425,0,0,1,.426-.426Z" transform="translate(-158.356 -0.584)" fill="#c7c7c7"/>
      <path id="패스_9" data-name="패스 9" d="M302.78,8.717H299.2a.425.425,0,0,1-.426-.426V8.249a.425.425,0,0,1,.426-.426h4.641a.425.425,0,0,1,.426.426v6.265a.421.421,0,0,1-.2.361,5.218,5.218,0,0,1-.578.308,7.4,7.4,0,0,1-1.221.426,13,13,0,0,1-1.628.32,14.68,14.68,0,0,1-2,.129,8.823,8.823,0,0,1-3.214-.525,5.68,5.68,0,0,1-2.206-1.484,6.013,6.013,0,0,1-1.27-2.317,10.443,10.443,0,0,1-.407-3V7.093a8.681,8.681,0,0,1,.445-2.861,5.877,5.877,0,0,1,1.3-2.176A5.714,5.714,0,0,1,295.42.679,8.225,8.225,0,0,1,298.341.2a11.409,11.409,0,0,1,3.142.407,10.143,10.143,0,0,1,1.948.761.432.432,0,0,1,.141.654l-.049.057a.426.426,0,0,1-.536.1,8.759,8.759,0,0,0-1.917-.772,10.574,10.574,0,0,0-2.724-.308,6.637,6.637,0,0,0-2.389.407,5.012,5.012,0,0,0-1.8,1.153,4.861,4.861,0,0,0-1.122,1.814,6.992,6.992,0,0,0-.38,2.37V8.976a6.28,6.28,0,0,0,1.563,4.622,6.041,6.041,0,0,0,4.473,1.571,12.581,12.581,0,0,0,2.514-.247,6.418,6.418,0,0,0,1.78-.593.421.421,0,0,0,.217-.373V9.147A.423.423,0,0,0,302.78,8.717Z" transform="translate(-181.053 -0.2)" fill="#c7c7c7"/>
    </g>
  </g>
</svg>
