<svg xmlns="http://www.w3.org/2000/svg" width="100" height="94.59" viewBox="0 0 100 94.59">
  <g id="noun_debug_3294102" transform="translate(120.95 64.304)">
    <g id="그룹_253" data-name="그룹 253" transform="translate(-120.95 -64.304)">
      <path id="패스_32" data-name="패스 32" d="M13.3,17.659l1.1,7.1a17.19,17.19,0,0,0,9.452-9.452l-7.1-1.1A10.3,10.3,0,0,1,13.3,17.659Z" transform="translate(42.149 42.312)" fill="#23374d"/>
      <path id="패스_33" data-name="패스 33" d="M21.5,15.285a17.055,17.055,0,0,0-.314-3.088l-6.745,1.05a10.262,10.262,0,0,1,.205,2.038,10.2,10.2,0,0,1-.205,2.038l6.745,1.05A16.688,16.688,0,0,0,21.5,15.285Z" transform="translate(45.779 35.924)" fill="#23374d"/>
      <path id="패스_34" data-name="패스 34" d="M12.123,8.541H23.437A1.871,1.871,0,0,0,25.3,6.671,5.981,5.981,0,0,0,19.328.7h-3.1a5.978,5.978,0,0,0-5.975,5.975A1.88,1.88,0,0,0,12.123,8.541Z" transform="translate(32.437 -0.696)" fill="#23374d"/>
      <path id="패스_35" data-name="패스 35" d="M16.424,15.9l1.05-6.745a17.094,17.094,0,0,0-3.088-.314,17.094,17.094,0,0,0-3.088.314l1.05,6.745a10.228,10.228,0,0,1,4.075,0Z" transform="translate(35.765 25.235)" fill="#23374d"/>
      <path id="패스_36" data-name="패스 36" d="M14.408,9.144l-1.1,7.1A10.3,10.3,0,0,1,16.759,19.7l7.1-1.1A17.177,17.177,0,0,0,14.408,9.144Z" transform="translate(42.149 26.203)" fill="#23374d"/>
      <path id="패스_37" data-name="패스 37" d="M8.244,18.6l7.1,1.1A10.3,10.3,0,0,1,18.8,16.244l-1.1-7.1A17.19,17.19,0,0,0,8.244,18.6Z" transform="translate(26.041 26.203)" fill="#23374d"/>
      <path id="패스_38" data-name="패스 38" d="M12.476,8.508V27.814a20.281,20.281,0,0,1,7.707,2.276c.1-.117.2-.23.293-.347.23-.289.494-.556.7-.858a12.061,12.061,0,0,0,.72-1.31c.151-.293.339-.569.464-.874a11.842,11.842,0,0,0,.5-1.6c.071-.259.18-.5.23-.766a12.709,12.709,0,0,0,.251-2.5v-.916H33.572a1.439,1.439,0,1,0,0-2.879H23.338V14.082c5.054-.582,7.983-3.946,8.029-9.469l.013-1.3A1.441,1.441,0,0,0,28.5,3.291l-.013,1.3c-.033,3.933-1.762,6.05-5.146,6.548V10.99c0-2.176-.619-4.77-1.967-5.7a5.458,5.458,0,0,1-5.017,3.222H12.476Z" transform="translate(39.516 3.023)" fill="#23374d"/>
      <path id="패스_39" data-name="패스 39" d="M12.347,15.342,11.3,22.087a17.093,17.093,0,0,0,3.088.314,17.093,17.093,0,0,0,3.088-.314l-1.05-6.745a10.262,10.262,0,0,1-2.038.205A9.931,9.931,0,0,1,12.347,15.342Z" transform="translate(35.762 45.938)" fill="#23374d"/>
      <path id="패스_40" data-name="패스 40" d="M8.254,12.2a17.093,17.093,0,0,0-.314,3.088,17.094,17.094,0,0,0,.314,3.088L15,17.322a10.228,10.228,0,0,1,0-4.075Z" transform="translate(25.073 35.921)" fill="#23374d"/>
      <path id="패스_41" data-name="패스 41" d="M17.7,24.759l1.1-7.1A10.3,10.3,0,0,1,15.344,14.2l-7.1,1.1A17.2,17.2,0,0,0,17.7,24.759Z" transform="translate(26.041 42.312)" fill="#23374d"/>
      <path id="패스_42" data-name="패스 42" d="M10.4,18.151A6.854,6.854,0,1,0,17.252,11.3,6.862,6.862,0,0,0,10.4,18.151Z" transform="translate(32.899 33.059)" fill="#23374d"/>
      <path id="패스_43" data-name="패스 43" d="M.05,22.442a3.284,3.284,0,0,0,3.285,3.28H33.74V32.9H25.406a1.795,1.795,0,0,0,0,3.59H74.694a1.795,1.795,0,0,0,0-3.59H66.063V25.723h30.7a3.284,3.284,0,0,0,3.285-3.28v-3.28H.05Zm62.1,3.644V32.9H37.657V25.723H62.142v.364Z" transform="translate(-0.05 58.102)" fill="#23374d"/>
      <path id="패스_44" data-name="패스 44" d="M28.933,7.59c-.021-.109-.013-.2-.029-.3h-.167c-.021,0-.042-.013-.063-.013h-27v46.1H88.088V7.276H61.218c-.021.1-.013.226-.029.326,5.381.59,8.456,4.205,8.456,9.971v1.3a1.843,1.843,0,0,1-3.686,0v-1.3c0-4.167-1.862-6.192-5.849-6.36a16.1,16.1,0,0,1-2.372,3.7,20.559,20.559,0,1,1-25.322-.075,16.042,16.042,0,0,1-2.322-3.628C26,11.326,24.1,13.36,24.1,17.573v1.3a1.845,1.845,0,0,1-3.69,0v-1.3C20.41,11.753,23.511,8.138,28.933,7.59ZM71.025,41.247H84.18a1.795,1.795,0,0,1,0,3.59H71.025a1.795,1.795,0,0,1,0-3.59Zm-4.481,6.222H84.18a1.795,1.795,0,0,1,0,3.59H66.544a1.795,1.795,0,0,1,0-3.59Zm-43.033,0a1.795,1.795,0,0,1,0,3.59H5.875a1.795,1.795,0,0,1,0-3.59Zm-2.69-4.427a1.8,1.8,0,0,1-1.791,1.795H5.875a1.795,1.795,0,0,1,0-3.59H19.03A1.8,1.8,0,0,1,20.82,43.042Z" transform="translate(5.121 20.255)" fill="#23374d"/>
      <path id="패스_45" data-name="패스 45" d="M7.647,20.918H17.882v.916a12.486,12.486,0,0,0,.259,2.506c.059.28.18.544.255.824a12.023,12.023,0,0,0,.5,1.556c.134.31.331.59.49.891a12.648,12.648,0,0,0,.741,1.31c.213.305.49.577.732.87.075.092.155.18.234.272a20.276,20.276,0,0,1,7.657-2.251V8.508H25a5.6,5.6,0,0,1-5.084-3.222c-1.343.916-2.042,3.473-2.042,5.7V11.1c-3.28-.54-4.971-2.64-5-6.51l-.013-1.3a1.441,1.441,0,0,0-2.883.021l.013,1.3c.046,5.469,2.925,8.812,7.883,9.444v3.979H7.647a1.444,1.444,0,0,0,0,2.887Z" transform="translate(19.558 3.023)" fill="#23374d"/>
      <path id="패스_46" data-name="패스 46" d="M3.222,10.72a1.9,1.9,0,0,1,1.9-1.9H22.125V5.653H1.636A1.585,1.585,0,0,0,.05,7.239v51.31H3.222V10.72Z" transform="translate(-0.05 15.088)" fill="#23374d"/>
      <path id="패스_47" data-name="패스 47" d="M38.937,5.653H18.745V8.82H35.452a1.9,1.9,0,0,1,1.9,1.9V58.548h3.176V7.235A1.584,1.584,0,0,0,38.937,5.653Z" transform="translate(59.477 15.088)" fill="#23374d"/>
    </g>
  </g>
</svg>
