<svg xmlns="http://www.w3.org/2000/svg" width="100" height="99.595" viewBox="0 0 100 99.595">
  <g id="noun_Web_Designer_1807250_1_" data-name="noun_Web Designer_1807250 (1)" transform="translate(-2.454 -2.599)">
    <g id="그룹_251" data-name="그룹 251" transform="translate(2.454 2.599)">
      <path id="패스_19" data-name="패스 19" d="M94.86,34.278h-34.5V13.665H80.558L83.5,10.3H58.893A1.885,1.885,0,0,0,57,12.193V38.906A1.885,1.885,0,0,0,58.893,40.8H73.932v3.365h-3.26a.943.943,0,0,0-.947.947v1.683a.943.943,0,0,0,.947.947H84.659a.943.943,0,0,0,.947-.947V45.111a.943.943,0,0,0-.947-.947H81.294V40.8H96.438a1.885,1.885,0,0,0,1.893-1.893v-26.4l-3.471,2.84ZM77.613,38.8a1.262,1.262,0,1,1,1.262-1.262A1.215,1.215,0,0,1,77.613,38.8Z" transform="translate(0.365 -2.201)" fill="#23374d"/>
      <path id="패스_20" data-name="패스 20" d="M51.107,64.626a4.77,4.77,0,0,0-4.733-4.207h-12.2L32.913,43.592a21.509,21.509,0,0,0,11.358,3.155h8.308a4,4,0,1,0,0-7.993H44.271a14.637,14.637,0,0,1-7.782-2.314L28.6,31.183A8.958,8.958,0,0,0,23.343,29.5H21.87a9.851,9.851,0,0,0-7.257,3.365,9.581,9.581,0,0,0-2.209,7.677L16.3,65.888a4.678,4.678,0,0,0,4.733,4H42.063L44.9,95.966a4.77,4.77,0,0,0,4.733,4.207h.526a4.739,4.739,0,0,0,4.207-5.258Z" transform="translate(-1.945 -1.209)" fill="#23374d"/>
      <path id="패스_21" data-name="패스 21" d="M36.261,73.449H20.171a7.239,7.239,0,0,1-7.151-6.2L8.812,40.532A3.2,3.2,0,1,0,2.5,41.583L6.709,68.3A13.576,13.576,0,0,0,20.171,79.864H36.261a3.208,3.208,0,0,0,0-6.415Z" transform="translate(-2.454 -0.777)" fill="#23374d"/>
      <path id="패스_22" data-name="패스 22" d="M95.985,49.4H42.455A3.164,3.164,0,0,0,39.3,52.555a3.235,3.235,0,0,0,3.155,3.155H70.009V93.465H63.594a3.155,3.155,0,0,0,0,6.31H95.88a3.164,3.164,0,0,0,3.155-3.155V52.555A3.01,3.01,0,0,0,95.985,49.4Z" transform="translate(-0.55 -0.18)" fill="#23374d"/>
      <circle id="타원_5" data-name="타원 5" cx="10.412" cy="10.412" r="10.412" transform="translate(10.25 4.734)" fill="#23374d"/>
      <path id="패스_23" data-name="패스 23" d="M82.614,18.375a6.965,6.965,0,0,1,1.578,2.314L97.022,9.541a3.87,3.87,0,0,0,.21-5.784,3.948,3.948,0,0,0-5.784.21L80.3,16.8A9,9,0,0,1,82.614,18.375Z" transform="translate(1.569 -2.599)" fill="#23374d"/>
      <path id="패스_24" data-name="패스 24" d="M74.918,19.366c-1.893,1.893-.947,5.153-4.1,7.467a.831.831,0,0,0,.315,1.472,10.96,10.96,0,0,0,10.2-2.524,4.536,4.536,0,0,0-6.415-6.415Z" transform="translate(1.062 -1.802)" fill="#23374d"/>
    </g>
  </g>
</svg>
