<?xml version="1.0" encoding="utf-8"?>
<!-- Generator: Adobe Illustrator 24.1.1, SVG Export Plug-In . SVG Version: 6.00 Build 0)  -->
<svg version="1.1" id="레이어_1" xmlns="http://www.w3.org/2000/svg" xmlns:xlink="http://www.w3.org/1999/xlink" x="0px"
	 y="0px" viewBox="0 0 326 42" style="enable-background:new 0 0 326 42;" xml:space="preserve">
<style type="text/css">
	.st0{fill:none;}
	.st1{fill:#1089FF;}
	.st2{fill:#23374D;}
</style>
<rect x="4.99" y="8.89" class="st0" width="40.35" height="32.24"/>
<rect x="49.73" y="-15.37" class="st0" width="166.27" height="98.37"/>
<g>
	<path class="st1" d="M33.34,36.36c0.46,0.51,0.37,1.31-0.2,1.69c-0.28,0.19-0.59,0.38-0.92,0.59c-0.84,0.52-1.88,1.03-3.11,1.51
		c-1.23,0.49-2.66,0.9-4.28,1.24s-3.42,0.5-5.41,0.5c-3.28,0-6.08-0.46-8.39-1.38c-2.31-0.92-4.2-2.22-5.67-3.9
		c-1.47-1.68-2.55-3.71-3.24-6.09c-0.69-2.38-1.04-5-1.04-7.88v-4.32c0-2.77,0.37-5.27,1.1-7.52s1.84-4.15,3.3-5.72
		C6.96,3.51,8.79,2.31,11,1.47s4.75-1.26,7.64-1.26c3.02,0,5.74,0.36,8.16,1.07c1.88,0.55,3.56,1.22,5.02,2
		c0.63,0.34,0.82,1.16,0.36,1.71l-0.13,0.15c-0.34,0.42-0.94,0.52-1.42,0.26c-1.63-0.89-3.28-1.57-4.94-2.03
		c-1.94-0.54-4.3-0.81-7.06-0.81c-2.33,0-4.42,0.36-6.25,1.07c-1.84,0.71-3.37,1.72-4.6,3.03c-1.23,1.31-2.17,2.9-2.82,4.77
		C4.32,13.3,4,15.37,4,17.66v5.61c0,5.35,1.32,9.4,3.95,12.15c2.63,2.75,6.5,4.13,11.6,4.13c1.56,0,2.99-0.13,4.31-0.39
		c1.32-0.26,2.53-0.6,3.63-1.01c1.1-0.41,2.07-0.86,2.92-1.35c0.49-0.28,0.94-0.56,1.34-0.82c0.46-0.3,1.06-0.21,1.43,0.19
		L33.34,36.36z"/>
	<path class="st1" d="M69.43,1.94v38.22c0,0.62-0.5,1.12-1.12,1.12H67.7c-0.62,0-1.12-0.5-1.12-1.12V22.31
		c0-0.62-0.5-1.12-1.12-1.12H41.59c-0.62,0-1.12,0.5-1.12,1.12v17.85c0,0.62-0.5,1.12-1.12,1.12h-0.61c-0.62,0-1.12-0.5-1.12-1.12
		V1.94c0-0.62,0.5-1.12,1.12-1.12h0.61c0.62,0,1.12,0.5,1.12,1.12v15.83c0,0.62,0.5,1.12,1.12,1.12h23.86c0.62,0,1.12-0.5,1.12-1.12
		V1.94c0-0.62,0.5-1.12,1.12-1.12h0.61C68.93,0.82,69.43,1.32,69.43,1.94z"/>
	<path class="st1" d="M109.16,39.71L92.33,1.49c-0.18-0.41-0.58-0.67-1.03-0.67h-1.39c-0.44,0-0.85,0.26-1.03,0.67L71.88,39.7
		c-0.33,0.74,0.21,1.58,1.03,1.58h0.65c0.45,0,0.85-0.26,1.03-0.67l4.53-10.39l0.58-1.33c0.18-0.41,1.78-4.03,1.96-4.44l0.11-0.26
		l1.01-2.29l3.95-8.95c0.73-1.65,1.44-3.24,2.11-4.8c0.27-0.62,0.53-1.25,0.77-1.88c0.37-0.94,1.69-0.97,2.07-0.04
		c0.26,0.64,0.53,1.28,0.82,1.92c0.69,1.55,1.38,3.15,2.07,4.8l4.91,11.51c0.21,0.5,1.76,4.04,1.93,4.43l4.99,11.71
		c0.18,0.41,0.58,0.68,1.03,0.68h0.71C108.95,41.28,109.49,40.45,109.16,39.71z"/>
	<path class="st1" d="M114.9,0.82c0.37,0,0.72,0.18,0.93,0.49l22.92,33.8c0.26,0.37,0.59,0.92,1,1.63c0.41,0.71,0.74,1.31,1,1.8
		V1.94c0-0.62,0.5-1.12,1.12-1.12h0.54c0.62,0,1.12,0.5,1.12,1.12v38.22c0,0.62-0.5,1.12-1.12,1.12h-2.17
		c-0.37,0-0.72-0.18-0.93-0.49L116.4,6.99c-0.35-0.52-0.7-1.1-1.07-1.74c-0.37-0.64-0.68-1.2-0.94-1.68v36.59
		c0,0.62-0.5,1.12-1.12,1.12h-0.54c-0.62,0-1.12-0.5-1.12-1.12V1.94c0-0.62,0.5-1.12,1.12-1.12H114.9z"/>
	<path class="st2" d="M164.92,24.84v15.32c0,0.62-0.5,1.12-1.12,1.12h-0.61c-0.62,0-1.12-0.5-1.12-1.12V24.85
		c0-0.23-0.07-0.45-0.19-0.63L147.13,2.57c-0.51-0.75,0.03-1.75,0.93-1.75h0.33c0.37,0,0.72,0.18,0.93,0.49l13.29,19.55
		c0.45,0.66,1.43,0.65,1.87-0.02l12.74-19.52c0.21-0.32,0.56-0.51,0.94-0.51h0.41c0.9,0,1.43,1,0.93,1.74l-14.4,21.66
		C164.99,24.4,164.92,24.62,164.92,24.84z"/>
	<path class="st2" d="M210.33,1.94V2c0,0.62-0.5,1.12-1.12,1.12h-22.18c-0.62,0-1.12,0.5-1.12,1.12v14.03c0,0.62,0.5,1.12,1.12,1.12
		h20.82c0.62,0,1.12,0.5,1.12,1.12v0c0,0.62-0.5,1.12-1.12,1.12h-20.82c-0.62,0-1.12,0.5-1.12,1.12v15.1c0,0.62,0.5,1.12,1.12,1.12
		h22.63c0.62,0,1.12,0.5,1.12,1.12v0.06c0,0.62-0.5,1.12-1.12,1.12h-25.48c-0.62,0-1.12-0.5-1.12-1.12V1.94
		c0-0.62,0.5-1.12,1.12-1.12h25.03C209.83,0.82,210.33,1.32,210.33,1.94z"/>
	<path class="st2" d="M250.17,23.6c0,2.66-0.38,5.11-1.13,7.35c-0.76,2.24-1.88,4.18-3.37,5.81s-3.36,2.89-5.6,3.79
		c-2.25,0.9-4.86,1.35-7.84,1.35c-2.98,0-5.59-0.45-7.84-1.35c-2.25-0.9-4.11-2.16-5.6-3.79c-1.49-1.63-2.61-3.56-3.37-5.81
		c-0.76-2.24-1.13-4.69-1.13-7.35V18.5c0-2.66,0.38-5.11,1.13-7.35c0.75-2.24,1.88-4.18,3.37-5.81c1.49-1.63,3.36-2.89,5.6-3.79
		c2.24-0.9,4.86-1.35,7.84-1.35c2.98,0,5.59,0.45,7.84,1.35c2.25,0.9,4.11,2.16,5.6,3.79s2.61,3.56,3.37,5.81
		c0.75,2.24,1.13,4.7,1.13,7.35V23.6z M247.26,18.55c0-5.24-1.34-9.22-4.02-11.95c-2.68-2.73-6.35-4.1-11.01-4.1
		c-4.66,0-8.33,1.37-11.01,4.1c-2.68,2.73-4.02,6.72-4.02,11.95v4.99c0,5.24,1.34,9.22,4.02,11.95c2.68,2.73,6.35,4.1,11.01,4.1
		c4.66,0,8.33-1.37,11.01-4.1c2.68-2.73,4.02-6.71,4.02-11.95V18.55z"/>
	<path class="st2" d="M258.2,0.82c0.37,0,0.72,0.18,0.93,0.49l22.92,33.8c0.26,0.37,0.59,0.92,1,1.63c0.41,0.71,0.74,1.31,1,1.8
		V1.94c0-0.62,0.5-1.12,1.12-1.12h0.54c0.62,0,1.12,0.5,1.12,1.12v38.22c0,0.62-0.5,1.12-1.12,1.12h-2.17
		c-0.37,0-0.72-0.18-0.93-0.49L259.7,6.99c-0.35-0.52-0.7-1.1-1.07-1.74c-0.37-0.64-0.68-1.2-0.94-1.68v36.59
		c0,0.62-0.5,1.12-1.12,1.12h-0.54c-0.62,0-1.12-0.5-1.12-1.12V1.94c0-0.62,0.5-1.12,1.12-1.12H258.2z"/>
	<path class="st2" d="M321.09,22.59h-9.42c-0.62,0-1.12-0.5-1.12-1.12v-0.11c0-0.62,0.5-1.12,1.12-1.12h12.2
		c0.62,0,1.12,0.5,1.12,1.12v16.47c0,0.39-0.2,0.75-0.53,0.95c-0.41,0.26-0.92,0.53-1.52,0.81c-0.89,0.41-1.95,0.79-3.21,1.12
		c-1.25,0.34-2.68,0.62-4.28,0.84c-1.6,0.22-3.35,0.34-5.25,0.34c-3.28,0-6.1-0.46-8.45-1.38c-2.36-0.92-4.29-2.22-5.8-3.9
		c-1.51-1.68-2.62-3.71-3.34-6.09c-0.71-2.38-1.07-5-1.07-7.88v-4.32c0-2.77,0.39-5.27,1.17-7.52c0.78-2.24,1.92-4.15,3.43-5.72
		c1.51-1.57,3.38-2.78,5.6-3.62c2.22-0.84,4.78-1.26,7.68-1.26c3.02,0,5.78,0.36,8.26,1.07c1.93,0.55,3.64,1.22,5.12,2
		c0.64,0.34,0.82,1.16,0.37,1.72l-0.13,0.15c-0.34,0.42-0.94,0.52-1.41,0.26c-1.64-0.89-3.32-1.57-5.04-2.03
		c-2.01-0.54-4.39-0.81-7.16-0.81c-2.33,0-4.43,0.36-6.28,1.07c-1.86,0.71-3.43,1.72-4.73,3.03c-1.3,1.31-2.28,2.9-2.95,4.77
		c-0.67,1.87-1,3.95-1,6.23v5.61c0,5.35,1.37,9.4,4.11,12.15c2.74,2.75,6.66,4.13,11.76,4.13c2.24,0,4.45-0.21,6.61-0.65
		c1.87-0.37,3.43-0.89,4.68-1.56c0.36-0.19,0.57-0.58,0.57-0.98V23.72C322.21,23.1,321.71,22.59,321.09,22.59z"/>
</g>
</svg>
