<svg id="noun_Planning_691125" xmlns="http://www.w3.org/2000/svg" width="80.425" height="110" viewBox="0 0 80.425 110">
  <g id="그룹_250" data-name="그룹 250" transform="translate(0)">
    <path id="패스_11" data-name="패스 11" d="M56.215,1.619H74.825V15.373H60.275a10,10,0,0,1,1.443,1.619H76.444V0H54.6V12.871a9.846,9.846,0,0,1,1.618.293Z" transform="translate(-32.508)" fill="#23374d"/>
    <path id="패스_12" data-name="패스 12" d="M119.71,65.992c0,.041,0,.078,0,.119h15.14V79.866H116.239V78.589a12,12,0,0,1-1.619,1.681v1.215h21.847V64.493H119.681C119.7,65.005,119.709,65.506,119.71,65.992Z" transform="translate(-68.247 -38.4)" fill="#23374d"/>
    <path id="패스_13" data-name="패스 13" d="M104.338,76.991v3.1a10.8,10.8,0,0,0,.9-3.1Z" transform="translate(-62.125 -45.842)" fill="#23374d"/>
    <path id="패스_14" data-name="패스 14" d="M113.786,157.089h21.847V140.1H113.786Zm1.618-15.373h18.61v13.755H115.4V141.715Z" transform="translate(-67.75 -83.416)" fill="#23374d"/>
    <path id="패스_15" data-name="패스 15" d="M132.684,117.952v3.1h6.878v-3.1h-2.63v-4.923h2.63v-3.1h-6.878v3.1h2.629v4.923Z" transform="translate(-79.002 -65.452)" fill="#23374d"/>
    <path id="패스_16" data-name="패스 16" d="M85.35,62.055V60.436H77.889V48.029h2.621v-3.1H74A9.83,9.83,0,0,1,75,48.029h1.266V61.982l.166.072Z" transform="translate(-44.059 -26.75)" fill="#23374d"/>
    <path id="패스_17" data-name="패스 17" d="M144.786,16.992h21.847V0H144.786ZM146.4,1.618h18.61V15.373H146.4Z" transform="translate(-86.208)" fill="#23374d"/>
    <rect id="사각형_84" data-name="사각형 84" width="3.102" height="6.878" transform="translate(54.418 5.057)" fill="#23374d"/>
    <rect id="사각형_85" data-name="사각형 85" width="8.27" height="1.619" transform="translate(45.361 7.78)" fill="#23374d"/>
    <path id="패스_18" data-name="패스 18" d="M9.271,128.077a5,5,0,0,0,10,0V91.554H21.15v36.523a5,5,0,0,0,10,0V65.713A21.286,21.286,0,0,0,38.057,67a13.053,13.053,0,0,0,4.539-.768,11.033,11.033,0,0,0,5.926-5.258c1.418-2.641,2.127-6,2.131-10.3,0-.962-.037-1.97-.11-3.031a3.236,3.236,0,0,0-2.439-2.914V38.76h-1.58v5.967a3.233,3.233,0,0,0-2.438,3.359q.095,1.388.093,2.586c0,4.812-1.094,7.212-2.115,8.328a4.221,4.221,0,0,1-1.719,1.164,6.574,6.574,0,0,1-2.29.364,15.229,15.229,0,0,1-4.937-.984c-.708-.254-1.3-.511-1.7-.7-.2-.093-.354-.169-.452-.217l-.1-.052-.01-.006h-.006a3.225,3.225,0,0,0-.986-.339,3.109,3.109,0,0,0-1.835-.6H12.4a3.111,3.111,0,0,0-1.425.346,8.6,8.6,0,0,0-1.309.518c-.242.118-.488.254-.735.4C6.891,60.137,4.7,62.513,3.092,66.541,1.266,71.073.005,77.718,0,87.862q0,2.6.117,5.522a3.237,3.237,0,0,0,3.232,3.1c.044,0,.089,0,.134,0a3.237,3.237,0,0,0,3.1-3.365q-.115-2.8-.112-5.259c-.01-8.116.881-13.553,1.988-17.11a22.445,22.445,0,0,1,.809-2.213v59.538Z" transform="translate(0 -23.078)" fill="#23374d"/>
    <circle id="타원_4" data-name="타원 4" cx="9.103" cy="9.103" r="9.103" transform="translate(12.038 13.635)" fill="#23374d"/>
  </g>
</svg>
